HIERARCHY
ROOT hip
{
  OFFSET 0 0 0
  CHANNELS 6 Xposition Yposition Zposition Zrotation Yrotation Xrotation
  JOINT abdomen
  {
    OFFSET 0 20.6881 -0.73152
    CHANNELS 3 Zrotation Xrotation Yrotation
    JOINT chest
    {
      OFFSET 0 11.7043 -0.48768
      CHANNELS 3 Zrotation Xrotation Yrotation
      JOINT neck
      {
        OFFSET 0 22.1894 -2.19456
        CHANNELS 3 Zrotation Xrotation Yrotation
        JOINT head
        {
          OFFSET -0.24384 7.07133 1.2192
          CHANNELS 3 Zrotation Xrotation Yrotation
          JOINT leftEye
          {
            OFFSET 4.14528 8.04674 8.04672
            CHANNELS 3 Zrotation Xrotation Yrotation
            End Site
            {
              OFFSET 1 0 0
            }
          }
          JOINT rightEye
          {
            OFFSET -3.6576 8.04674 8.04672
            CHANNELS 3 Zrotation Xrotation Yrotation
            End Site
            {
              OFFSET 1 0 0
            }
          }
        }
      }
      JOINT rCollar
      {
        OFFSET -2.68224 19.2634 -4.8768
        CHANNELS 3 Zrotation Xrotation Yrotation
        JOINT rShldr
        {
          OFFSET -8.77824 -1.95073 1.46304
          CHANNELS 3 Zrotation Xrotation Yrotation
          JOINT rForeArm
          {
            OFFSET -28.1742 -1.7115 0.48768
            CHANNELS 3 Zrotation Xrotation Yrotation
            JOINT rHand
            {
              OFFSET -22.5879 0.773209 7.07136
              CHANNELS 3 Zrotation Xrotation Yrotation
              JOINT rThumb1
              {
                OFFSET -1.2192 -0.487915 3.41376
                CHANNELS 3 Zrotation Xrotation Yrotation
                JOINT rThumb2
                {
                  OFFSET -3.37035 -0.52449 3.41376
                  CHANNELS 3 Zrotation Xrotation Yrotation
                  End Site
                  {
                    OFFSET -1.78271 -1.18214 1.43049
                  }
                }
              }
              JOINT rIndex1
              {
                OFFSET -7.75947 0.938293 5.60832
                CHANNELS 3 Zrotation Xrotation Yrotation
                JOINT rIndex2
                {
                  OFFSET -2.54057 -0.884171 1.56538
                  CHANNELS 3 Zrotation Xrotation Yrotation
                  End Site
                  {
                    OFFSET -1.62519 -0.234802 1.16502
                  }
                }
              }
              JOINT rMid1
              {
                OFFSET -8.24714 1.18213 3.41376
                CHANNELS 3 Zrotation Xrotation Yrotation
                JOINT rMid2
                {
                  OFFSET -3.10165 -0.590103 1.0647
                  CHANNELS 3 Zrotation Xrotation Yrotation
                  End Site
                  {
                    OFFSET -2.48547 -0.328903 0.83742
                  }
                }
              }
              JOINT rRing1
              {
                OFFSET -8.82822 0.546677 1.51678
                CHANNELS 3 Zrotation Xrotation Yrotation
                JOINT rRing2
                {
                  OFFSET -2.60934 -0.819778 -0.0198488
                  CHANNELS 3 Zrotation Xrotation Yrotation
                  End Site
                  {
                    OFFSET -2.33842 -0.294052 0.168128
                  }
                }
              }
              JOINT rPinky1
              {
                OFFSET -8.27202 -0.0477905 -0.4584
                CHANNELS 3 Zrotation Xrotation Yrotation
                JOINT rPinky2
                {
                  OFFSET -1.82734 -0.647385 -0.700984
                  CHANNELS 3 Zrotation Xrotation Yrotation
                  End Site
                  {
                    OFFSET -1.69225 -0.51767 -0.607171
                  }
                }
              }
            }
          }
        }
      }
      JOINT lCollar
      {
        OFFSET 2.68224 19.2634 -4.8768
        CHANNELS 3 Zrotation Xrotation Yrotation
        JOINT lShldr
        {
          OFFSET 8.77824 -1.95073 1.46304
          CHANNELS 3 Zrotation Xrotation Yrotation
          JOINT lForeArm
          {
            OFFSET 28.1742 -1.7115 0.48768
            CHANNELS 3 Zrotation Xrotation Yrotation
            JOINT lHand
            {
              OFFSET 22.5879 0.773209 7.07136
              CHANNELS 3 Zrotation Xrotation Yrotation
              JOINT lThumb1
              {
                OFFSET 1.2192 -0.487915 3.41376
                CHANNELS 3 Zrotation Xrotation Yrotation
                JOINT lThumb2
                {
                  OFFSET 3.37035 -0.52449 3.41376
                  CHANNELS 3 Zrotation Xrotation Yrotation
                  End Site
                  {
                    OFFSET 1.78271 -1.18214 1.43049
                  }
                }
              }
              JOINT lIndex1
              {
                OFFSET 7.75947 0.938293 5.60832
                CHANNELS 3 Zrotation Xrotation Yrotation
                JOINT lIndex2
                {
                  OFFSET 2.54057 -0.884171 1.56538
                  CHANNELS 3 Zrotation Xrotation Yrotation
                  End Site
                  {
                    OFFSET 1.62519 -0.234802 1.16502
                  }
                }
              }
              JOINT lMid1
              {
                OFFSET 8.24714 1.18213 3.41376
                CHANNELS 3 Zrotation Xrotation Yrotation
                JOINT lMid2
                {
                  OFFSET 3.10165 -0.590103 1.0647
                  CHANNELS 3 Zrotation Xrotation Yrotation
                  End Site
                  {
                    OFFSET 2.48547 -0.328903 0.83742
                  }
                }
              }
              JOINT lRing1
              {
                OFFSET 8.82822 0.546677 1.51678
                CHANNELS 3 Zrotation Xrotation Yrotation
                JOINT lRing2
                {
                  OFFSET 2.60934 -0.819778 -0.0198488
                  CHANNELS 3 Zrotation Xrotation Yrotation
                  End Site
                  {
                    OFFSET 2.33842 -0.294052 0.168128
                  }
                }
              }
              JOINT lPinky1
              {
                OFFSET 8.27202 -0.0477905 -0.4584
                CHANNELS 3 Zrotation Xrotation Yrotation
                JOINT lPinky2
                {
                  OFFSET 1.82734 -0.647385 -0.700984
                  CHANNELS 3 Zrotation Xrotation Yrotation
                  End Site
                  {
                    OFFSET 1.69225 -0.51767 -0.607171
                  }
                }
              }
            }
          }
        }
      }
    }
  }
  JOINT rButtock
  {
    OFFSET -8.77824 4.35084 1.2192
    CHANNELS 3 Zrotation Xrotation Yrotation
    JOINT rThigh
    {
      OFFSET 0 -1.70687 -2.19456
      CHANNELS 3 Zrotation Xrotation Yrotation
      JOINT rShin
      {
        OFFSET 0 -36.8199 0.73152
        CHANNELS 3 Zrotation Xrotation Yrotation
        JOINT rFoot
        {
          OFFSET 0.73152 -45.1104 -5.12064
          CHANNELS 3 Zrotation Xrotation Yrotation
          End Site
          {
            OFFSET -1.1221 -3.69964 12.103
          }
        }
      }
    }
  }
  JOINT lButtock
  {
    OFFSET 8.77824 4.35084 1.2192
    CHANNELS 3 Zrotation Xrotation Yrotation
    JOINT lThigh
    {
      OFFSET 0 -1.70687 -2.19456
      CHANNELS 3 Zrotation Xrotation Yrotation
      JOINT lShin
      {
        OFFSET 0 -36.8199 0.73152
        CHANNELS 3 Zrotation Xrotation Yrotation
        JOINT lFoot
        {
          OFFSET -0.73152 -45.1104 -5.12064
          CHANNELS 3 Zrotation Xrotation Yrotation
          End Site
          {
            OFFSET 1.1221 -3.69964 12.103
          }
        }
      }
    }
  }
}
MOTION
Frames:	6
Frame Time:	0.03333
0.0 0.0 0.0 0.0 0.0 0.0 0.0 0.0 0.0 0.0 0.0 0.0 0.0 0.0 0.0 0.0 0.0 0.0 0.0 0.0 0.0 0.0 0.0 0.0 0.0 0.0 0.0 0.0 0.0 0.0 0.0 0.0 0.0 0.0 0.0 0.0 0.0 0.0 0.0 0.0 0.0 0.0 0.0 0.0 0.0 0.0 0.0 0.0 0.0 0.0 0.0 0.0 0.0 0.0 0.0 0.0 0.0 0.0 0.0 0.0 0.0 0.0 0.0 0.0 0.0 0.0 0.0 0.0 0.0 0.0 0.0 0.0 0.0 0.0 0.0 0.0 0.0 0.0 0.0 0.0 0.0 0.0 0.0 0.0 0.0 0.0 0.0 0.0 0.0 0.0 0.0 0.0 0.0 0.0 0.0 0.0 0.0 0.0 0.0 0.0 0.0 0.0 0.0 0.0 0.0 0.0 0.0 0.0 0.0 0.0 0.0 0.0 0.0 0.0 0.0 0.0 0.0 0.0 0.0 0.0 0.0 0.0 0.0 0.0 0.0 0.0 0.0 0.0 0.0 0.0 0.0 0.0
5.8108 76.8678 2.3390999999999997 30.993525 -2.502946 3.441212 -14.540262 22.215989 5.030391 -5.391189 -11.384919 4.169932 8.619041 16.674604 67.285799 -32.482314 3.538962 -32.355016 0.003481 0.0 0.000884 0.003481 0.0 0.000884 -155.417535 -2.951351 161.718722 -165.822025 61.168354 150.271345 153.130198 -73.613809 11.481954 167.040887 -20.694609 143.666939 -166.632328 -4.304376 89.77186 176.806424 -19.360919 92.490012 -140.762974 1.38023 116.228607 106.908353 -70.617742 54.48205 -154.143745 11.634619 139.428184 -34.731147 54.928967 29.48636 -145.117649 0.226163 -179.200522 12.120874 44.702904 -3.862825 -155.35734 49.792808 -149.60201 -21.775578 -36.83472 -22.598463 -3.268609 -26.755847 5.241652 22.366062 -69.212079 72.452893 -136.566949 -68.582387 -23.599733 170.370875 11.477578 -140.392618 159.654267 2.601287 -88.799954 -112.215243 -56.567209 -77.961665 46.20881 39.652326 -36.318825 -0.920726 8.642648 0.885777 160.573656 -6.359653 -143.196826 42.498407 58.271742 -36.601784 72.755121 -72.14365 89.772052 150.977662 -0.297799 -176.391422 156.378669 53.734259 150.119809 148.971946 13.866968 142.47529 -179.98466 75.748869 -0.010496 153.399504 33.468603 127.297994 55.194684 -18.147597 -46.552872 60.636849 -82.663595 -24.652044 -179.983441 75.750034 -0.01133 -143.004505 -0.364606 90.011976 116.900504 -2.338574 146.866004 -6.330538 28.621074 121.703258
7.088 79.5179 3.8651 37.291894 -9.383389 2.036631 -24.386591 19.558953 80.467709 -10.907759 -0.555856 -68.161043 -9.022082 16.470323 -43.413768 21.853799 -20.82669 83.963784 -0.003121 0.0 -0.001493 0.002574 -0.0 -0.001895 -85.537625 68.181483 88.688762 -8.91532 14.702746 34.431315 -114.662994 -83.167465 -14.791359 -6.147135 22.595749 0.870509 -168.698273 -6.37843 89.8996 46.427111 -65.913037 36.773794 -162.919163 -37.929341 122.629393 83.538399 -68.826271 29.81564 89.0348 -81.39365 59.758275 -151.879857 24.912596 136.9524 -145.120213 0.226962 -179.198874 -156.263819 63.854307 172.322189 -137.842965 -7.593314 -135.094081 -147.982165 14.129255 -142.329637 13.946273 42.750768 -15.783119 -67.620542 -28.411871 -28.031176 -58.999211 -31.354579 -92.491117 28.040481 42.206162 -10.368866 -4.529998 -4.514475 0.520456 15.822352 15.686948 -11.062686 166.820743 -43.973672 -122.063318 -13.195305 1.525337 9.240486 36.035834 51.723206 -29.832211 162.831094 -3.955274 -143.169089 145.11939 0.227049 179.198653 -12.005387 33.174181 5.244084 0.529574 -1.364061 0.490768 146.653923 9.55092 143.181367 -179.998004 75.749862 -0.001761 146.551772 30.491975 17.916432 -17.345903 48.828359 -3.56884 146.52263 -13.841934 -9.436229 179.96997 75.748412 0.024708 -134.545035 11.316888 -10.163346 33.97286 87.367972 -157.243125 -57.362157 55.730437 151.93919
8.195 82.286 4.7531 41.671039 -14.766717 0.023638 -24.737055 17.452531 -110.101967 11.223074 -3.326805 123.471273 2.443822 11.886168 20.78454 -21.24708 -19.227941 11.311721 -0.001201 -0.0 0.005265 -0.001562 -0.0 0.001612 -142.974025 39.431707 147.390192 151.459366 -49.866729 159.062192 -17.663783 0.098323 105.08406 -1.115472 4.782545 0.081925 114.538617 -50.245485 55.722047 -158.42772 -5.617793 114.121695 -4.706571 7.224009 2.854958 16.199616 -7.8386 -1.285799 -152.825689 14.79298 138.514368 -163.378434 -5.295788 143.035686 -145.063003 -3.307466 -178.086854 -151.572527 -28.039656 -174.723098 -26.565119 -38.860613 -25.606074 -4.644302 -17.953243 -7.240408 142.973494 39.431503 -147.389807 -84.855925 -41.959775 -94.845468 39.71246 -87.057699 1.357588 7.050914 0.829315 2.280305 -88.928574 -50.829886 -37.599792 137.580253 17.968917 -100.465928 140.762766 1.379906 -116.22816 15.52764 37.195885 -4.515165 161.153904 -8.160625 -143.464932 144.245009 37.073624 -131.221005 -0.003668 1.770215 -0.55775 140.5082 60.463449 -154.51961 163.651482 74.574101 150.50851 6.575106 -17.414239 8.169688 -179.998889 75.750536 0.0 141.030789 26.146067 18.839921 -0.998375 52.283805 93.519645 -74.75214 -69.001723 -160.558391 -179.925227 75.749891 -0.061522 -125.52059 31.308067 55.831455 46.250515 -4.739417 74.102818 5.577121 22.440256 -141.753662
11.9632 83.97710000000001 4.4684 43.678439 -16.418945 -1.087762 -30.571465 18.90023 85.237557 -10.330756 1.662753 -72.531139 11.882829 22.204034 106.435683 -29.481218 31.378645 -66.140314 -0.002141 -0.0 0.001982 -0.002384 0.0 -0.001334 -14.147523 43.061722 15.996061 -103.85205 42.497349 107.699005 122.70436 -52.2016 -126.934108 -29.524057 58.112594 14.422787 -2.813128 2.754515 0.498395 -132.691711 -32.445358 115.420497 167.119007 -67.039437 108.16884 -83.791577 54.600388 69.677228 -160.098606 -4.901017 142.969152 -4.980707 20.996026 4.738054 -145.118706 0.185073 -179.187106 -155.546598 1.335402 -179.395995 -6.634567 -14.762539 -6.242319 -80.410355 -54.461797 -80.298703 44.040993 64.186754 -46.710807 78.623245 29.608693 -121.251829 15.59364 -58.484994 82.757139 -170.138522 -29.081104 -142.016394 171.603374 -9.286409 -89.948926 38.97098 -23.02794 -5.787002 1.396531 2.231913 -0.807025 65.881784 48.381973 -50.584272 -68.982362 -80.154548 -40.57582 166.468008 -13.920747 -143.882046 69.296741 72.947169 -87.016594 159.507232 -15.007638 -178.116851 149.120102 25.572333 145.199883 151.982082 24.482347 144.295756 -0.001075 -0.000791 -0.001075 -47.894885 -34.59425 148.355542 -0.26485 -55.629379 -39.539743 63.500209 50.808387 -160.822234 -0.000242 0.000453 0.000311 49.609375 -3.737753 91.513531 11.818364 5.7352 144.673806 -131.038889 43.839721 177.540272
14.960999999999999 84.50649999999999 3.8539999999999996 44.464363 -14.944448 -1.234984 -27.548682 20.338309 109.157201 -8.187771 4.453708 -97.255078 -7.93993 17.216059 -55.187865 24.184621 -19.637097 89.612824 0.001824 0.0 0.002437 -0.002761 -0.0 0.000628 -6.251464 26.219206 7.467838 76.141221 -45.798289 64.951616 169.274223 -57.836662 30.623046 173.155492 -13.191216 143.942069 175.879845 -21.257383 88.493164 104.95805 -71.926162 80.90348 60.462415 -70.523308 15.712268 -2.929712 28.125777 3.676531 -10.975695 25.789944 7.639898 -170.194817 -26.268557 144.278235 -145.119499 0.226747 -179.199319 12.113662 45.380774 -3.775374 -4.661021 -10.866209 -4.364879 -8.504855 -23.981758 -10.115181 142.973889 39.431823 -147.390513 -81.690334 -31.552078 -98.267125 -168.568405 -69.933061 161.956502 9.367133 22.250569 -0.485472 -1.842956 -1.826915 0.254206 140.602982 -46.122644 -120.947138 27.421033 30.639813 -20.097878 -14.102287 -9.328872 2.258051 -7.904945 -24.807473 3.013329 129.326721 52.110549 -118.463274 145.11599 -0.220483 179.058003 23.947977 -71.885437 45.207927 154.409923 46.072357 149.060093 74.583569 -53.221567 73.661383 -0.005076 0.000843 -0.005076 -46.741169 -31.417574 -63.871373 -40.665753 28.158143 -41.542437 13.651483 -3.683138 90.33776 -179.985807 75.750175 -0.011678 -117.165286 25.738099 -0.0 25.618087 16.436015 -47.831133 49.715051 12.061889 -12.782345
